<?xml version="1.0" encoding="utf-8"?>
<!-- Generator: Adobe Illustrator 24.0.0, SVG Export Plug-In . SVG Version: 6.00 Build 0)  -->
<svg version="1.1" id="Layer_1" xmlns="http://www.w3.org/2000/svg" xmlns:xlink="http://www.w3.org/1999/xlink" x="0px" y="0px"
	 viewBox="0 0 595.28 183.06" style="enable-background:new 0 0 595.28 183.06;" xml:space="preserve">
<style type="text/css">
	.st0{fill:#231F20;}
</style>
<g>
	<g>
		<path class="st0" d="M144.01,72.99c-0.16-0.16-0.32-0.3-0.49-0.45l-0.47-0.42c-4.81-4.44-10.33-6.59-16.86-6.59
			c-4.75,0-9.01,1.27-12.96,3.86c5.55,5.92,8.36,12.64,8.36,20.17c0,9.41-2.95,17.46-8.85,24.14c-1.34,1.51-2.76,2.83-4.25,4
			c-5.07,3.99-10.99,6.02-17.8,6.02c-7.75,0-14.43-2.65-20.06-7.9c-0.62-0.58-1.24-1.17-1.84-1.81c-6-6.47-8.99-14.62-8.99-24.44
			c0.03-1.33,0.17-2.62,0.35-3.89c0.51-7.17,2.07-14.12,4.69-20.7c0.92-2.32,1.86-4.38,2.86-6.3c5.18-9.96,13.17-18.28,23.75-24.7
			c1.87-1.13,3.8-2.14,5.77-3.08c-2.15-0.23-4.33-0.38-6.54-0.38c-11.6,0-22.23,2.94-31.9,8.81c-9.66,5.87-16.85,13.3-21.53,22.31
			c-4.69,9.01-7.03,18.73-7.03,29.15c0,11.33,2.56,21.76,7.69,31.27c5.12,9.51,12.37,16.97,21.75,22.39
			c9.38,5.41,20.01,8.12,31.9,8.12c5.95,0,11.67-0.85,17.18-2.48c4.42-1.31,8.71-3.12,12.84-5.49c9.28-5.31,16.53-12.8,21.75-22.46
			c1.09-2.02,2.04-4.1,2.9-6.22c3.27-8.06,4.93-16.88,4.93-26.49c0-0.95-0.02-1.89-0.06-2.83C150.45,81.6,148.12,77.13,144.01,72.99
			"/>
		<path class="st0" d="M178.55,59.43c-5.51-9.05-12.93-16.14-22.26-21.25c-9.33-5.11-19.31-7.66-29.95-7.66
			c-6.24,0-12.2,0.88-17.88,2.58c-4.88,1.46-9.56,3.52-14.02,6.23c-9.66,5.87-16.85,13.3-21.53,22.31c-0.98,1.88-1.83,3.79-2.6,5.73
			c-2.94,7.37-4.43,15.17-4.43,23.42c0,2.48,0.14,4.91,0.39,7.3c1.13,4.38,3.78,8.21,6.87,11.55c0.49,0.53,1.01,1.01,1.52,1.49
			c4.55,4.25,9.81,6.31,16.06,6.31c5.05,0,9.39-1.34,13.21-4.05c-5.63-6.37-8.47-14.3-8.47-23.82c0.19-8.3,3.36-15.4,9.5-21.33
			c1.17-1.13,2.38-2.11,3.62-3.02c5.26-3.88,11.13-5.85,17.63-5.85c7.99,0,14.9,2.73,20.76,8.14c0.38,0.35,0.77,0.67,1.14,1.05
			c6.09,6.12,9.13,13.13,9.13,21.02c0,0.73-0.05,1.43-0.09,2.14h0.08c-0.33,12.38-3.16,23.58-8.55,33.57
			c-5.74,10.64-13.73,18.89-23.95,24.73c-1.39,0.79-2.79,1.52-4.21,2.21c2.19,0.21,4.41,0.35,6.7,0.35
			c10.73,0,20.74-2.66,30.02-7.97c9.28-5.31,16.53-12.8,21.75-22.46c5.22-9.67,7.83-20.57,7.83-32.71
			C186.81,78.47,184.05,68.49,178.55,59.43"/>
	</g>
	<g>
		<polygon class="st0" points="310.1,97.9 309.96,97.9 283.93,62.92 269.72,62.92 269.72,120.14 283.93,120.14 283.93,85.08 
			284.07,85.08 310.1,120.14 324.31,120.14 324.31,62.92 310.1,62.92 		"/>
		<path class="st0" d="M367.67,66.71c-4.25-2.53-8.85-3.79-13.78-3.79h-20.3v57.22h20.16c4.88,0,9.46-1.24,13.74-3.72
			c4.28-2.48,7.69-5.96,10.22-10.44c2.54-4.48,3.81-9.3,3.81-14.46c0-5.11-1.24-9.89-3.74-14.34
			C375.3,72.73,371.92,69.24,367.67,66.71z M357.38,106.48c-1.84,0.71-4.33,1.06-7.47,1.06h-2.1V75.51h3.55
			c4.54,0,8.24,1.42,11.09,4.25c2.85,2.83,4.28,6.75,4.28,11.76C366.73,99.22,363.61,104.2,357.38,106.48z"/>
		<polygon class="st0" points="388.12,120.14 419.22,120.14 419.22,107.54 402.33,107.54 402.33,97.68 418.35,97.68 418.35,85.08 
			402.33,85.08 402.33,75.51 419.22,75.51 419.22,62.92 388.12,62.92 		"/>
		<polygon class="st0" points="490.64,62.92 480.34,99.88 480.2,99.88 469.47,62.92 458.15,62.92 446.7,99.88 446.55,99.88 
			437.06,62.92 422.26,62.92 438.58,120.14 453.01,120.14 463.74,86.97 463.88,86.97 473.45,120.14 487.95,120.14 505.43,62.92 		
			"/>
		<path class="st0" d="M561.47,75.48c-2.76-4.53-6.47-8.07-11.13-10.63c-4.66-2.55-9.66-3.83-14.97-3.83
			c-5.8,0-11.12,1.47-15.95,4.4c-4.83,2.93-8.42,6.65-10.77,11.15c-2.35,4.51-3.52,9.36-3.52,14.57c0,5.67,1.28,10.88,3.84,15.64
			c2.56,4.76,6.19,8.49,10.87,11.19c4.69,2.71,10,4.06,15.95,4.06c5.36,0,10.37-1.33,15.01-3.98c4.64-2.66,8.27-6.4,10.87-11.23
			c2.61-4.83,3.92-10.28,3.92-16.36C565.6,85,564.22,80.01,561.47,75.48z M546.39,102.61c-2.95,3.34-6.62,5.01-11.02,5.01
			c-4.3,0-7.95-1.62-10.95-4.86c-3-3.24-4.5-7.31-4.5-12.22c0.1-4.15,1.68-7.7,4.75-10.66c3.07-2.96,6.61-4.44,10.62-4.44
			c4.25,0,7.9,1.53,10.95,4.59c3.04,3.06,4.57,6.56,4.57,10.51C550.81,95.25,549.34,99.27,546.39,102.61z"/>
		<path class="st0" d="M246.8,64.85c-4.66-2.55-9.66-3.83-14.97-3.83c-5.8,0-11.12,1.47-15.95,4.4c-4.83,2.93-8.42,6.65-10.77,11.15
			c-2.35,4.51-3.52,9.36-3.52,14.57c0,5.67,1.28,10.88,3.84,15.64c2.56,4.76,6.19,8.49,10.87,11.19c4.69,2.71,10,4.06,15.95,4.06
			c5.36,0,10.37-1.33,15.01-3.98c4.64-2.66,8.27-6.4,10.87-11.23c2.61-4.83,3.92-10.28,3.92-16.36c0-5.47-1.38-10.46-4.13-14.99
			C255.18,70.95,251.47,67.41,246.8,64.85z M242.85,102.61c-2.95,3.34-6.62,5.01-11.02,5.01c-4.3,0-7.95-1.62-10.95-4.86
			c-3-3.24-4.5-7.31-4.5-12.22c0.1-4.15,1.68-7.7,4.75-10.66c3.07-2.96,6.61-4.44,10.62-4.44c4.25,0,7.9,1.53,10.95,4.59
			c3.04,3.06,4.57,6.56,4.57,10.51C247.27,95.25,245.8,99.27,242.85,102.61z"/>
	</g>
</g>
</svg>
