<?xml version="1.0" encoding="utf-8"?>
<!-- Generator: Adobe Illustrator 24.0.0, SVG Export Plug-In . SVG Version: 6.00 Build 0)  -->
<svg version="1.1" id="Layer_1" xmlns="http://www.w3.org/2000/svg" xmlns:xlink="http://www.w3.org/1999/xlink" x="0px" y="0px"
	 viewBox="0 0 595.28 562.74" style="enable-background:new 0 0 595.28 562.74;" xml:space="preserve">
<style type="text/css">
	.st0{fill:#231F20;}
</style>
<g>
	<path class="st0" d="M395.04,285.62c3.04-5.38,5.69-10.94,8.1-16.61c9.14-21.5,13.78-45.04,13.78-70.69c0-2.53-0.06-5.05-0.19-7.55
		c-1.84-13.27-8.33-25.22-19.84-36.26c-0.44-0.42-0.9-0.81-1.36-1.19l-1.31-1.13c-13.44-11.84-28.85-17.6-47.09-17.6
		c-13.28,0-25.16,3.39-36.21,10.29c15.51,15.8,23.35,33.73,23.35,53.84c0,25.12-8.25,46.6-24.71,64.42
		c-3.74,4.04-7.71,7.56-11.87,10.69c-14.16,10.66-30.72,16.05-49.73,16.05c-21.65,0-40.3-7.07-56.04-21.09
		c-1.73-1.55-3.46-3.12-5.13-4.84c-16.74-17.27-25.12-39.02-25.12-65.23c0.09-3.55,0.46-6.99,0.98-10.37
		c1.41-19.14,5.77-37.68,13.11-55.24c2.58-6.18,5.2-11.67,8-16.81c14.48-26.6,36.8-48.78,66.35-65.92
		c5.21-3.02,10.62-5.72,16.13-8.23c-6.02-0.61-12.09-1.01-18.28-1.01c-32.41,0-62.11,7.85-89.14,23.5
		c-27,15.66-47.06,35.51-60.15,59.54c-13.11,24.05-19.65,49.98-19.65,77.79c0,30.25,7.15,58.08,21.48,83.47
		c14.31,25.39,34.57,45.3,60.76,59.76c26.19,14.44,55.9,21.66,89.14,21.66c16.62,0,32.61-2.26,47.98-6.63
		c12.35-3.5,24.32-8.32,35.88-14.64C360.21,331.4,380.47,311.41,395.04,285.62z"/>
	<path class="st0" d="M494.59,285.62c14.59-25.79,21.88-54.9,21.88-87.3c0-29.18-7.7-55.84-23.08-80.02
		c-15.4-24.17-36.13-43.07-62.2-56.72c-26.06-13.64-53.95-20.46-83.66-20.46c-17.44,0-34.08,2.36-49.95,6.9
		c-13.62,3.89-26.7,9.38-39.18,16.61c-27,15.66-47.06,35.5-60.15,59.54c-2.73,5-5.1,10.12-7.27,15.29
		c-8.21,19.66-12.38,40.49-12.38,62.51c0,6.61,0.38,13.09,1.07,19.48c3.16,11.69,10.57,21.93,19.19,30.82
		c1.38,1.42,2.81,2.71,4.24,3.98c12.72,11.34,27.4,16.84,44.88,16.84c14.12,0,26.22-3.57,36.91-10.8
		c-15.72-17.01-23.65-38.17-23.65-63.57c0.54-22.14,9.4-41.11,26.54-56.92c3.26-3.01,6.65-5.63,10.11-8.07
		c14.69-10.35,31.09-15.62,49.25-15.62c22.31,0,41.62,7.3,57.99,21.73c1.06,0.93,2.15,1.8,3.18,2.79
		c17.01,16.34,25.52,35.03,25.52,56.09c0,1.94-0.14,3.81-0.24,5.7h0.21c-0.93,33.06-8.83,62.94-23.9,89.59
		c-16.04,28.41-38.35,50.4-66.9,66.01c-3.87,2.12-7.8,4.07-11.75,5.9c6.13,0.55,12.33,0.93,18.73,0.93
		c29.97,0,57.93-7.09,83.86-21.27C459.76,331.39,480.02,311.42,494.59,285.62z"/>
	<path class="st0" d="M106.89,445.75c-6.5-3.4-13.47-5.1-20.89-5.1c-8.09,0-15.51,1.95-22.25,5.86
		c-6.74,3.92-11.74,8.87-15.01,14.87c-3.27,6-4.9,12.47-4.9,19.42c0,7.55,1.78,14.49,5.36,20.83c3.57,6.34,8.63,11.32,15.17,14.92
		s13.96,5.41,22.25,5.41c7.48,0,14.46-1.77,20.93-5.31s11.53-8.52,15.17-14.97c3.64-6.44,5.46-13.71,5.46-21.8
		c0-7.28-1.92-13.94-5.76-19.97C118.58,453.87,113.4,449.15,106.89,445.75z M101.38,496.07c-4.11,4.45-9.24,6.68-15.38,6.68
		c-6,0-11.09-2.16-15.27-6.48c-4.18-4.31-6.27-9.75-6.27-16.28c0.14-5.53,2.34-10.27,6.63-14.21c4.28-3.94,9.22-5.92,14.82-5.92
		c5.93,0,11.02,2.04,15.27,6.13c4.25,4.08,6.37,8.75,6.37,14.01C107.55,486.26,105.49,491.62,101.38,496.07z"/>
	<polygon class="st0" points="193.73,489.8 193.53,489.8 157.22,443.17 137.39,443.17 137.39,519.43 157.22,519.43 157.22,472.71 
		157.42,472.71 193.73,519.43 213.55,519.43 213.55,443.17 193.73,443.17 	"/>
	<path class="st0" d="M274.04,448.22c-5.93-3.37-12.34-5.05-19.22-5.05h-28.32v76.26h28.12c6.81,0,13.2-1.66,19.16-4.95
		c5.97-3.31,10.72-7.95,14.26-13.91s5.31-12.39,5.31-19.27c0-6.8-1.73-13.17-5.21-19.11C284.67,456.25,279.97,451.6,274.04,448.22z
		 M259.67,501.23c-2.56,0.94-6.03,1.41-10.42,1.41h-2.93v-42.68h4.95c6.34,0,11.49,1.88,15.48,5.66c3.98,3.78,5.97,9,5.97,15.67
		C272.72,491.55,268.37,498.19,259.67,501.23z"/>
	<polygon class="st0" points="302.56,519.43 345.95,519.43 345.95,502.64 322.38,502.64 322.38,489.5 344.74,489.5 344.74,472.71 
		322.38,472.71 322.38,459.96 345.95,459.96 345.95,443.17 302.56,443.17 	"/>
	<polygon class="st0" points="431.21,492.42 431.01,492.42 416.04,443.17 400.26,443.17 384.28,492.42 384.08,492.42 370.83,443.17 
		350.2,443.17 372.95,519.43 393.08,519.43 408.05,475.23 408.25,475.23 421.6,519.43 441.83,519.43 466.2,443.17 445.58,443.17 	
		"/>
	<path class="st0" d="M545.91,459.91c-3.84-6.04-9.02-10.76-15.53-14.16c-6.5-3.4-13.47-5.1-20.89-5.1
		c-8.09,0-15.51,1.95-22.25,5.86c-6.74,3.92-11.74,8.87-15.01,14.87c-3.27,6-4.9,12.47-4.9,19.42c0,7.55,1.78,14.49,5.36,20.83
		c3.57,6.34,8.63,11.32,15.17,14.92c6.54,3.61,13.96,5.41,22.25,5.41c7.48,0,14.46-1.77,20.93-5.31
		c6.48-3.54,11.53-8.52,15.17-14.97c3.64-6.44,5.46-13.71,5.46-21.8C551.67,472.61,549.75,465.94,545.91,459.91z M524.87,496.07
		c-4.11,4.45-9.24,6.68-15.38,6.68c-6,0-11.09-2.16-15.27-6.48c-4.18-4.31-6.27-9.75-6.27-16.28c0.14-5.53,2.34-10.27,6.63-14.21
		c4.28-3.94,9.22-5.92,14.82-5.92c5.93,0,11.02,2.04,15.27,6.13c4.25,4.08,6.37,8.75,6.37,14.01
		C531.04,486.26,528.98,491.62,524.87,496.07z"/>
</g>
</svg>
